<svg xmlns="http://www.w3.org/2000/svg"
     xmlns:xlink="http://www.w3.org/1999/xlink"
     viewBox="0 0 900 260" width="900" height="260"
     style="border-radius:12px;overflow:hidden;background:#031c20">
  <defs>
    <linearGradient id="water" x1="0" y1="0" x2="0" y2="1">
      <stop offset="0%"   stop-color="#0b2b40"/>
      <stop offset="100%" stop-color="#051420"/>
    </linearGradient>
    <linearGradient id="sand" x1="0" y1="0" x2="0" y2="1">
      <stop offset="0%"   stop-color="#d5b885"/>
      <stop offset="100%" stop-color="#8c774b"/>
    </linearGradient>
    <filter id="glow">
      <feGaussianBlur in="SourceGraphic" stdDeviation="3" result="blur"/>
      <feMerge><feMergeNode in="blur"/><feMergeNode in="SourceGraphic"/></feMerge>
    </filter>
  </defs>

  <!-- Water -->
  <rect width="900" height="260" fill="url(#water)"/>

  <!-- Algae overlay if polluted -->
  <rect width="900" height="260" fill="rgba(46,204,113,0.12)" style="mix-blend-mode:color-burn"/>

  <!-- Sun Rays / Light shafts -->
  <polygon points="150,0 220,0 380,260 250,260" fill="rgba(255,255,255,0.06)" />
  <polygon points="500,0 600,0 750,260 600,260" fill="rgba(255,255,255,0.04)" />

  <!-- Bubbles rising -->
  
      <circle class="bubble" cx="774" cy="235" r="2" 
        fill="rgba(255,255,255,0.25)" stroke="rgba(255,255,255,0.4)" stroke-width="0.5"
        style="animation-delay:0s; animation-duration:4s"/>
    

      <circle class="bubble" cx="648" cy="235" r="3" 
        fill="rgba(255,255,255,0.25)" stroke="rgba(255,255,255,0.4)" stroke-width="0.5"
        style="animation-delay:0.4s; animation-duration:5s"/>
    

      <circle class="bubble" cx="522" cy="235" r="4" 
        fill="rgba(255,255,255,0.25)" stroke="rgba(255,255,255,0.4)" stroke-width="0.5"
        style="animation-delay:0.8s; animation-duration:6s"/>
    

      <circle class="bubble" cx="396" cy="235" r="5" 
        fill="rgba(255,255,255,0.25)" stroke="rgba(255,255,255,0.4)" stroke-width="0.5"
        style="animation-delay:1.2000000000000002s; animation-duration:7s"/>
    

      <circle class="bubble" cx="270" cy="235" r="2" 
        fill="rgba(255,255,255,0.25)" stroke="rgba(255,255,255,0.4)" stroke-width="0.5"
        style="animation-delay:1.6s; animation-duration:4s"/>
    

      <circle class="bubble" cx="144" cy="235" r="3" 
        fill="rgba(255,255,255,0.25)" stroke="rgba(255,255,255,0.4)" stroke-width="0.5"
        style="animation-delay:2s; animation-duration:5s"/>
    

      <circle class="bubble" cx="18" cy="235" r="4" 
        fill="rgba(255,255,255,0.25)" stroke="rgba(255,255,255,0.4)" stroke-width="0.5"
        style="animation-delay:2.4000000000000004s; animation-duration:6s"/>
    

      <circle class="bubble" cx="792" cy="235" r="5" 
        fill="rgba(255,255,255,0.25)" stroke="rgba(255,255,255,0.4)" stroke-width="0.5"
        style="animation-delay:2.8000000000000003s; animation-duration:7s"/>
    

      <circle class="bubble" cx="666" cy="235" r="2" 
        fill="rgba(255,255,255,0.25)" stroke="rgba(255,255,255,0.4)" stroke-width="0.5"
        style="animation-delay:3.2s; animation-duration:4s"/>
    

      <circle class="bubble" cx="540" cy="235" r="3" 
        fill="rgba(255,255,255,0.25)" stroke="rgba(255,255,255,0.4)" stroke-width="0.5"
        style="animation-delay:3.6s; animation-duration:5s"/>
    

      <circle class="bubble" cx="414" cy="235" r="4" 
        fill="rgba(255,255,255,0.25)" stroke="rgba(255,255,255,0.4)" stroke-width="0.5"
        style="animation-delay:4s; animation-duration:6s"/>
    

      <circle class="bubble" cx="288" cy="235" r="5" 
        fill="rgba(255,255,255,0.25)" stroke="rgba(255,255,255,0.4)" stroke-width="0.5"
        style="animation-delay:4.4s; animation-duration:7s"/>
    

      <circle class="bubble" cx="162" cy="235" r="2" 
        fill="rgba(255,255,255,0.25)" stroke="rgba(255,255,255,0.4)" stroke-width="0.5"
        style="animation-delay:4.800000000000001s; animation-duration:4s"/>
    

      <circle class="bubble" cx="36" cy="235" r="3" 
        fill="rgba(255,255,255,0.25)" stroke="rgba(255,255,255,0.4)" stroke-width="0.5"
        style="animation-delay:5.2s; animation-duration:5s"/>
    

      <circle class="bubble" cx="810" cy="235" r="4" 
        fill="rgba(255,255,255,0.25)" stroke="rgba(255,255,255,0.4)" stroke-width="0.5"
        style="animation-delay:5.6000000000000005s; animation-duration:6s"/>
    

      <circle class="bubble" cx="684" cy="235" r="5" 
        fill="rgba(255,255,255,0.25)" stroke="rgba(255,255,255,0.4)" stroke-width="0.5"
        style="animation-delay:0s; animation-duration:7s"/>
    

      <circle class="bubble" cx="558" cy="235" r="2" 
        fill="rgba(255,255,255,0.25)" stroke="rgba(255,255,255,0.4)" stroke-width="0.5"
        style="animation-delay:0.40000000000000036s; animation-duration:4s"/>
    

      <circle class="bubble" cx="432" cy="235" r="3" 
        fill="rgba(255,255,255,0.25)" stroke="rgba(255,255,255,0.4)" stroke-width="0.5"
        style="animation-delay:0.8000000000000007s; animation-duration:5s"/>
    

      <circle class="bubble" cx="306" cy="235" r="4" 
        fill="rgba(255,255,255,0.25)" stroke="rgba(255,255,255,0.4)" stroke-width="0.5"
        style="animation-delay:1.2000000000000002s; animation-duration:6s"/>
    

      <circle class="bubble" cx="180" cy="235" r="5" 
        fill="rgba(255,255,255,0.25)" stroke="rgba(255,255,255,0.4)" stroke-width="0.5"
        style="animation-delay:1.6000000000000005s; animation-duration:7s"/>
    

      <circle class="bubble" cx="54" cy="235" r="2" 
        fill="rgba(255,255,255,0.25)" stroke="rgba(255,255,255,0.4)" stroke-width="0.5"
        style="animation-delay:2s; animation-duration:4s"/>
    

      <circle class="bubble" cx="828" cy="235" r="3" 
        fill="rgba(255,255,255,0.25)" stroke="rgba(255,255,255,0.4)" stroke-width="0.5"
        style="animation-delay:2.4000000000000004s; animation-duration:5s"/>
    

      <circle class="bubble" cx="702" cy="235" r="4" 
        fill="rgba(255,255,255,0.25)" stroke="rgba(255,255,255,0.4)" stroke-width="0.5"
        style="animation-delay:2.8000000000000007s; animation-duration:6s"/>
    

      <circle class="bubble" cx="576" cy="235" r="5" 
        fill="rgba(255,255,255,0.25)" stroke="rgba(255,255,255,0.4)" stroke-width="0.5"
        style="animation-delay:3.200000000000001s; animation-duration:7s"/>
    

      <circle class="bubble" cx="450" cy="235" r="2" 
        fill="rgba(255,255,255,0.25)" stroke="rgba(255,255,255,0.4)" stroke-width="0.5"
        style="animation-delay:3.6000000000000014s; animation-duration:4s"/>
    

      <circle class="bubble" cx="324" cy="235" r="3" 
        fill="rgba(255,255,255,0.25)" stroke="rgba(255,255,255,0.4)" stroke-width="0.5"
        style="animation-delay:4s; animation-duration:5s"/>
    

      <circle class="bubble" cx="198" cy="235" r="4" 
        fill="rgba(255,255,255,0.25)" stroke="rgba(255,255,255,0.4)" stroke-width="0.5"
        style="animation-delay:4.4s; animation-duration:6s"/>
    

      <circle class="bubble" cx="72" cy="235" r="5" 
        fill="rgba(255,255,255,0.25)" stroke="rgba(255,255,255,0.4)" stroke-width="0.5"
        style="animation-delay:4.800000000000001s; animation-duration:7s"/>
    

      <circle class="bubble" cx="846" cy="235" r="2" 
        fill="rgba(255,255,255,0.25)" stroke="rgba(255,255,255,0.4)" stroke-width="0.5"
        style="animation-delay:5.200000000000001s; animation-duration:4s"/>
    

      <circle class="bubble" cx="720" cy="235" r="3" 
        fill="rgba(255,255,255,0.25)" stroke="rgba(255,255,255,0.4)" stroke-width="0.5"
        style="animation-delay:5.600000000000001s; animation-duration:5s"/>
    

      <circle class="bubble" cx="594" cy="235" r="4" 
        fill="rgba(255,255,255,0.25)" stroke="rgba(255,255,255,0.4)" stroke-width="0.5"
        style="animation-delay:0s; animation-duration:6s"/>
    

      <circle class="bubble" cx="468" cy="235" r="5" 
        fill="rgba(255,255,255,0.25)" stroke="rgba(255,255,255,0.4)" stroke-width="0.5"
        style="animation-delay:0.40000000000000036s; animation-duration:7s"/>
    

      <circle class="bubble" cx="342" cy="235" r="2" 
        fill="rgba(255,255,255,0.25)" stroke="rgba(255,255,255,0.4)" stroke-width="0.5"
        style="animation-delay:0.8000000000000007s; animation-duration:4s"/>
    

      <circle class="bubble" cx="216" cy="235" r="3" 
        fill="rgba(255,255,255,0.25)" stroke="rgba(255,255,255,0.4)" stroke-width="0.5"
        style="animation-delay:1.200000000000001s; animation-duration:5s"/>
    

      <circle class="bubble" cx="90" cy="235" r="4" 
        fill="rgba(255,255,255,0.25)" stroke="rgba(255,255,255,0.4)" stroke-width="0.5"
        style="animation-delay:1.6000000000000014s; animation-duration:6s"/>
    

      <circle class="bubble" cx="864" cy="235" r="5" 
        fill="rgba(255,255,255,0.25)" stroke="rgba(255,255,255,0.4)" stroke-width="0.5"
        style="animation-delay:2s; animation-duration:7s"/>
    

      <circle class="bubble" cx="738" cy="235" r="2" 
        fill="rgba(255,255,255,0.25)" stroke="rgba(255,255,255,0.4)" stroke-width="0.5"
        style="animation-delay:2.4000000000000004s; animation-duration:4s"/>
    

      <circle class="bubble" cx="612" cy="235" r="3" 
        fill="rgba(255,255,255,0.25)" stroke="rgba(255,255,255,0.4)" stroke-width="0.5"
        style="animation-delay:2.8000000000000007s; animation-duration:5s"/>
    

      <circle class="bubble" cx="486" cy="235" r="4" 
        fill="rgba(255,255,255,0.25)" stroke="rgba(255,255,255,0.4)" stroke-width="0.5"
        style="animation-delay:3.200000000000001s; animation-duration:6s"/>
    

      <circle class="bubble" cx="360" cy="235" r="5" 
        fill="rgba(255,255,255,0.25)" stroke="rgba(255,255,255,0.4)" stroke-width="0.5"
        style="animation-delay:3.6000000000000014s; animation-duration:7s"/>
    

  <!-- Treasures on seabed -->
  
    <g transform="translate(146, 215) scale(1)" class="treasure">
      <!-- Chest base -->
      <rect x="-12" y="0" width="24" height="12" fill="#5a3825" rx="1" stroke="#3d2214" stroke-width="1"/>
      <rect x="-10" y="2" width="20" height="2" fill="#d4af37"/>
      <!-- Chest Lid -->
      <path d="M -12,0 C -12,-8 12,-8 12,0 Z" fill="#5a3825" stroke="#3d2214" stroke-width="1"/>
      <path d="M -10,-2 C -10,-6 10,-6 10,-2" fill="none" stroke="#d4af37" stroke-width="1"/>
      <!-- Keyhole -->
      <circle cx="0" cy="4" r="1.5" fill="#111"/>
      <!-- Gold glow effect -->
      <circle cx="0" cy="-2" r="6" fill="rgba(212, 175, 55, 0.4)" filter="url(#glow)"/>
      <circle class="gold-sparkle" cx="-6" cy="-8" r="1" fill="#fff" />
      <circle class="gold-sparkle" cx="6" cy="-10" r="1" fill="#fff" style="animation-delay:0.5s" />
    </g>
  
  
    <g transform="translate(192, 215) scale(0.9)" class="treasure">
      <!-- Chest base -->
      <rect x="-12" y="0" width="24" height="12" fill="#5a3825" rx="1" stroke="#3d2214" stroke-width="1"/>
      <rect x="-10" y="2" width="20" height="2" fill="#d4af37"/>
      <!-- Chest Lid -->
      <path d="M -12,0 C -12,-8 12,-8 12,0 Z" fill="#5a3825" stroke="#3d2214" stroke-width="1"/>
      <path d="M -10,-2 C -10,-6 10,-6 10,-2" fill="none" stroke="#d4af37" stroke-width="1"/>
      <!-- Keyhole -->
      <circle cx="0" cy="4" r="1.5" fill="#111"/>
      <!-- Gold glow effect -->
      <circle cx="0" cy="-2" r="6" fill="rgba(212, 175, 55, 0.4)" filter="url(#glow)"/>
      <circle class="gold-sparkle" cx="-6" cy="-8" r="1" fill="#fff" />
      <circle class="gold-sparkle" cx="6" cy="-10" r="1" fill="#fff" style="animation-delay:0.5s" />
    </g>
  
  
    <g transform="translate(238, 215) scale(0.8)" class="treasure">
      <!-- Chest base -->
      <rect x="-12" y="0" width="24" height="12" fill="#5a3825" rx="1" stroke="#3d2214" stroke-width="1"/>
      <rect x="-10" y="2" width="20" height="2" fill="#d4af37"/>
      <!-- Chest Lid -->
      <path d="M -12,0 C -12,-8 12,-8 12,0 Z" fill="#5a3825" stroke="#3d2214" stroke-width="1"/>
      <path d="M -10,-2 C -10,-6 10,-6 10,-2" fill="none" stroke="#d4af37" stroke-width="1"/>
      <!-- Keyhole -->
      <circle cx="0" cy="4" r="1.5" fill="#111"/>
      <!-- Gold glow effect -->
      <circle cx="0" cy="-2" r="6" fill="rgba(212, 175, 55, 0.4)" filter="url(#glow)"/>
      <circle class="gold-sparkle" cx="-6" cy="-8" r="1" fill="#fff" />
      <circle class="gold-sparkle" cx="6" cy="-10" r="1" fill="#fff" style="animation-delay:0.5s" />
    </g>
  

  <!-- Corals & Plants -->
  
        <polygon class="sea-fan" points="8.653846153846153,223 -6.346153846153847,157 0.6538461538461533,145 8.653846153846153,152 16.653846153846153,145 23.653846153846153,157" fill="#e67e22" opacity="0.85" 
          style="animation-delay:0.00s"/>
      
  
        <g class="coral-plant" style="animation-delay:0.08s">
          <circle cx="25.96153846153846" cy="217" r="7" fill="#1abc9c"/>
          <circle cx="21.96153846153846" cy="209" r="5" fill="#1abc9c"/>
          <circle cx="30.96153846153846" cy="205" r="4" fill="#1abc9c"/>
          <circle cx="25.96153846153846" cy="198" r="3" fill="#1abc9c"/>
        </g>
      
  
        <path class="seaweed" d="M 43.26923076923077,223 Q 38.26923076923077,202 43.26923076923077,181 T 48.26923076923077,171" 
          fill="none" stroke="#1abc9c" stroke-width="3.5" stroke-linecap="round" 
          style="animation-delay:0.20s"/>
      
  
        <path class="seaweed" d="M 60.57692307692307,223 Q 55.57692307692307,202 60.57692307692307,181 T 65.57692307692307,171" 
          fill="none" stroke="#f1c40f" stroke-width="3.5" stroke-linecap="round" 
          style="animation-delay:0.30s"/>
      
  
  
        <polygon class="sea-fan" points="95.19230769230768,223 80.19230769230768,160 87.19230769230768,148 95.19230769230768,155 103.19230769230768,148 110.19230769230768,160" fill="#f1c40f" opacity="0.85" 
          style="animation-delay:1.00s"/>
      
  
  
  
  
  
        <g class="coral-plant" style="animation-delay:0.80s">
          <circle cx="181.73076923076923" cy="217" r="7" fill="#e67e22"/>
          <circle cx="177.73076923076923" cy="209" r="5" fill="#e67e22"/>
          <circle cx="186.73076923076923" cy="205" r="4" fill="#e67e22"/>
          <circle cx="181.73076923076923" cy="198" r="3" fill="#e67e22"/>
        </g>
      
  
        <g class="coral-plant" style="animation-delay:0.88s">
          <circle cx="199.03846153846152" cy="217" r="7" fill="#9b59b6"/>
          <circle cx="195.03846153846152" cy="209" r="5" fill="#9b59b6"/>
          <circle cx="204.03846153846152" cy="205" r="4" fill="#9b59b6"/>
          <circle cx="199.03846153846152" cy="198" r="3" fill="#9b59b6"/>
        </g>
      
  
        <polygon class="sea-fan" points="216.34615384615384,223 201.34615384615384,160 208.34615384615384,148 216.34615384615384,155 224.34615384615384,148 231.34615384615384,160" fill="#2980b9" opacity="0.85" 
          style="animation-delay:2.40s"/>
      
  
        <path class="seaweed" d="M 233.65384615384616,223 Q 228.65384615384616,207 233.65384615384616,191 T 238.65384615384616,181" 
          fill="none" stroke="#e74c3c" stroke-width="3.5" stroke-linecap="round" 
          style="animation-delay:1.30s"/>
      
  
  
  
  
  
  
  
  
  
  
        <path class="seaweed" d="M 406.73076923076917,223 Q 401.73076923076917,207 406.73076923076917,191 T 411.73076923076917,181" 
          fill="none" stroke="#2980b9" stroke-width="3.5" stroke-linecap="round" 
          style="animation-delay:2.30s"/>
      
  
        <path class="seaweed" d="M 424.0384615384615,223 Q 419.0384615384615,202 424.0384615384615,181 T 429.0384615384615,171" 
          fill="none" stroke="#e74c3c" stroke-width="3.5" stroke-linecap="round" 
          style="animation-delay:2.40s"/>
      
  
  
  
  
  
  
  
  
  
        <g class="coral-plant" style="animation-delay:2.64s">
          <circle cx="579.8076923076923" cy="217" r="7" fill="#2980b9"/>
          <circle cx="575.8076923076923" cy="209" r="5" fill="#2980b9"/>
          <circle cx="584.8076923076923" cy="205" r="4" fill="#2980b9"/>
          <circle cx="579.8076923076923" cy="198" r="3" fill="#2980b9"/>
        </g>
      
  
        <polygon class="sea-fan" points="597.1153846153846,223 582.1153846153846,164 589.1153846153846,152 597.1153846153846,159 605.1153846153846,152 612.1153846153846,164" fill="#9b59b6" opacity="0.85" 
          style="animation-delay:6.80s"/>
      
  
        <path class="seaweed" d="M 614.4230769230769,223 Q 609.4230769230769,207 614.4230769230769,191 T 619.4230769230769,181" 
          fill="none" stroke="#2980b9" stroke-width="3.5" stroke-linecap="round" 
          style="animation-delay:3.50s"/>
      
  
        <g class="coral-plant" style="animation-delay:5.40s">
          <!-- Main trunk -->
          <line x1="631.7307692307693" y1="223" x2="631.7307692307693" y2="190.2" stroke="#e74c3c" stroke-width="3" stroke-linecap="round"/>
          <!-- Left branch -->
          <path d="M 631.7307692307693,198.4 Q 619.7307692307693,182 621.7307692307693,157.39999999999998" fill="none" stroke="#e74c3c" stroke-width="2.5" stroke-linecap="round"/>
          <!-- Right branch -->
          <path d="M 631.7307692307693,190.2 Q 643.7307692307693,173.8 639.7307692307693,141" fill="none" stroke="#e74c3c" stroke-width="2.5" stroke-linecap="round"/>
          <!-- Small sub-branches -->
          <line x1="624.7307692307693" y1="173.8" x2="617.7307692307693" y2="165.6" stroke="#e74c3c" stroke-width="2" stroke-linecap="round"/>
          <line x1="637.7307692307693" y1="165.6" x2="643.7307692307693" y2="153.3" stroke="#e74c3c" stroke-width="2" stroke-linecap="round"/>
        </g>
      
  
        <g class="coral-plant" style="animation-delay:5.55s">
          <!-- Main trunk -->
          <line x1="649.0384615384615" y1="223" x2="649.0384615384615" y2="191.8" stroke="#e67e22" stroke-width="3" stroke-linecap="round"/>
          <!-- Left branch -->
          <path d="M 649.0384615384615,199.6 Q 637.0384615384615,184 639.0384615384615,160.6" fill="none" stroke="#e67e22" stroke-width="2.5" stroke-linecap="round"/>
          <!-- Right branch -->
          <path d="M 649.0384615384615,191.8 Q 661.0384615384615,176.2 657.0384615384615,145" fill="none" stroke="#e67e22" stroke-width="2.5" stroke-linecap="round"/>
          <!-- Small sub-branches -->
          <line x1="642.0384615384615" y1="176.2" x2="635.0384615384615" y2="168.4" stroke="#e67e22" stroke-width="2" stroke-linecap="round"/>
          <line x1="655.0384615384615" y1="168.4" x2="661.0384615384615" y2="156.7" stroke="#e67e22" stroke-width="2" stroke-linecap="round"/>
        </g>
      
  
        <g class="coral-plant" style="animation-delay:3.04s">
          <circle cx="666.3461538461538" cy="217" r="7" fill="#f1c40f"/>
          <circle cx="662.3461538461538" cy="209" r="5" fill="#f1c40f"/>
          <circle cx="671.3461538461538" cy="205" r="4" fill="#f1c40f"/>
          <circle cx="666.3461538461538" cy="198" r="3" fill="#f1c40f"/>
        </g>
      
  
        <g class="coral-plant" style="animation-delay:3.12s">
          <circle cx="683.6538461538462" cy="217" r="7" fill="#2980b9"/>
          <circle cx="679.6538461538462" cy="209" r="5" fill="#2980b9"/>
          <circle cx="688.6538461538462" cy="205" r="4" fill="#2980b9"/>
          <circle cx="683.6538461538462" cy="198" r="3" fill="#2980b9"/>
        </g>
      
  
        <g class="coral-plant" style="animation-delay:3.20s">
          <circle cx="700.9615384615385" cy="217" r="7" fill="#e67e22"/>
          <circle cx="696.9615384615385" cy="209" r="5" fill="#e67e22"/>
          <circle cx="705.9615384615385" cy="205" r="4" fill="#e67e22"/>
          <circle cx="700.9615384615385" cy="198" r="3" fill="#e67e22"/>
        </g>
      
  
  
        <g class="coral-plant" style="animation-delay:3.36s">
          <circle cx="735.5769230769231" cy="217" r="7" fill="#1abc9c"/>
          <circle cx="731.5769230769231" cy="209" r="5" fill="#1abc9c"/>
          <circle cx="740.5769230769231" cy="205" r="4" fill="#1abc9c"/>
          <circle cx="735.5769230769231" cy="198" r="3" fill="#1abc9c"/>
        </g>
      
  
        <g class="coral-plant" style="animation-delay:3.44s">
          <circle cx="752.8846153846154" cy="217" r="7" fill="#f1c40f"/>
          <circle cx="748.8846153846154" cy="209" r="5" fill="#f1c40f"/>
          <circle cx="757.8846153846154" cy="205" r="4" fill="#f1c40f"/>
          <circle cx="752.8846153846154" cy="198" r="3" fill="#f1c40f"/>
        </g>
      
  
        <g class="coral-plant" style="animation-delay:6.60s">
          <!-- Main trunk -->
          <line x1="770.1923076923076" y1="223" x2="770.1923076923076" y2="192.6" stroke="#e67e22" stroke-width="3" stroke-linecap="round"/>
          <!-- Left branch -->
          <path d="M 770.1923076923076,200.2 Q 758.1923076923076,185 760.1923076923076,162.2" fill="none" stroke="#e67e22" stroke-width="2.5" stroke-linecap="round"/>
          <!-- Right branch -->
          <path d="M 770.1923076923076,192.6 Q 782.1923076923076,177.4 778.1923076923076,147" fill="none" stroke="#e67e22" stroke-width="2.5" stroke-linecap="round"/>
          <!-- Small sub-branches -->
          <line x1="763.1923076923076" y1="177.4" x2="756.1923076923076" y2="169.8" stroke="#e67e22" stroke-width="2" stroke-linecap="round"/>
          <line x1="776.1923076923076" y1="169.8" x2="782.1923076923076" y2="158.4" stroke="#e67e22" stroke-width="2" stroke-linecap="round"/>
        </g>
      
  
        <path class="seaweed" d="M 787.5,223 Q 782.5,207 787.5,191 T 792.5,181" 
          fill="none" stroke="#1abc9c" stroke-width="3.5" stroke-linecap="round" 
          style="animation-delay:4.50s"/>
      
  
        <polygon class="sea-fan" points="804.8076923076923,223 789.8076923076923,160 796.8076923076923,148 804.8076923076923,155 812.8076923076923,148 819.8076923076923,160" fill="#1abc9c" opacity="0.85" 
          style="animation-delay:9.20s"/>
      
  
        <g class="coral-plant" style="animation-delay:7.05s">
          <!-- Main trunk -->
          <line x1="822.1153846153846" y1="223" x2="822.1153846153846" y2="191.8" stroke="#f1c40f" stroke-width="3" stroke-linecap="round"/>
          <!-- Left branch -->
          <path d="M 822.1153846153846,199.6 Q 810.1153846153846,184 812.1153846153846,160.6" fill="none" stroke="#f1c40f" stroke-width="2.5" stroke-linecap="round"/>
          <!-- Right branch -->
          <path d="M 822.1153846153846,191.8 Q 834.1153846153846,176.2 830.1153846153846,145" fill="none" stroke="#f1c40f" stroke-width="2.5" stroke-linecap="round"/>
          <!-- Small sub-branches -->
          <line x1="815.1153846153846" y1="176.2" x2="808.1153846153846" y2="168.4" stroke="#f1c40f" stroke-width="2" stroke-linecap="round"/>
          <line x1="828.1153846153846" y1="168.4" x2="834.1153846153846" y2="156.7" stroke="#f1c40f" stroke-width="2" stroke-linecap="round"/>
        </g>
      
  
        <g class="coral-plant" style="animation-delay:7.20s">
          <!-- Main trunk -->
          <line x1="839.4230769230769" y1="223" x2="839.4230769230769" y2="173" stroke="#e74c3c" stroke-width="3" stroke-linecap="round"/>
          <!-- Left branch -->
          <path d="M 839.4230769230769,185.5 Q 827.4230769230769,160.5 829.4230769230769,123" fill="none" stroke="#e74c3c" stroke-width="2.5" stroke-linecap="round"/>
          <!-- Right branch -->
          <path d="M 839.4230769230769,173 Q 851.4230769230769,148 847.4230769230769,98" fill="none" stroke="#e74c3c" stroke-width="2.5" stroke-linecap="round"/>
          <!-- Small sub-branches -->
          <line x1="832.4230769230769" y1="148" x2="825.4230769230769" y2="135.5" stroke="#e74c3c" stroke-width="2" stroke-linecap="round"/>
          <line x1="845.4230769230769" y1="135.5" x2="851.4230769230769" y2="116.75" stroke="#e74c3c" stroke-width="2" stroke-linecap="round"/>
        </g>
      
  
        <g class="coral-plant" style="animation-delay:7.35s">
          <!-- Main trunk -->
          <line x1="856.7307692307692" y1="223" x2="856.7307692307692" y2="178.6" stroke="#e74c3c" stroke-width="3" stroke-linecap="round"/>
          <!-- Left branch -->
          <path d="M 856.7307692307692,189.7 Q 844.7307692307692,167.5 846.7307692307692,134.2" fill="none" stroke="#e74c3c" stroke-width="2.5" stroke-linecap="round"/>
          <!-- Right branch -->
          <path d="M 856.7307692307692,178.6 Q 868.7307692307692,156.4 864.7307692307692,112" fill="none" stroke="#e74c3c" stroke-width="2.5" stroke-linecap="round"/>
          <!-- Small sub-branches -->
          <line x1="849.7307692307692" y1="156.4" x2="842.7307692307692" y2="145.3" stroke="#e74c3c" stroke-width="2" stroke-linecap="round"/>
          <line x1="862.7307692307692" y1="145.3" x2="868.7307692307692" y2="128.65" stroke="#e74c3c" stroke-width="2" stroke-linecap="round"/>
        </g>
      
  
        <g class="coral-plant" style="animation-delay:7.50s">
          <!-- Main trunk -->
          <line x1="874.0384615384615" y1="223" x2="874.0384615384615" y2="187.4" stroke="#9b59b6" stroke-width="3" stroke-linecap="round"/>
          <!-- Left branch -->
          <path d="M 874.0384615384615,196.3 Q 862.0384615384615,178.5 864.0384615384615,151.8" fill="none" stroke="#9b59b6" stroke-width="2.5" stroke-linecap="round"/>
          <!-- Right branch -->
          <path d="M 874.0384615384615,187.4 Q 886.0384615384615,169.6 882.0384615384615,134" fill="none" stroke="#9b59b6" stroke-width="2.5" stroke-linecap="round"/>
          <!-- Small sub-branches -->
          <line x1="867.0384615384615" y1="169.6" x2="860.0384615384615" y2="160.7" stroke="#9b59b6" stroke-width="2" stroke-linecap="round"/>
          <line x1="880.0384615384615" y1="160.7" x2="886.0384615384615" y2="147.35000000000002" stroke="#9b59b6" stroke-width="2" stroke-linecap="round"/>
        </g>
      
  
        <g class="coral-plant" style="animation-delay:7.65s">
          <!-- Main trunk -->
          <line x1="891.3461538461538" y1="223" x2="891.3461538461538" y2="193.4" stroke="#e67e22" stroke-width="3" stroke-linecap="round"/>
          <!-- Left branch -->
          <path d="M 891.3461538461538,200.8 Q 879.3461538461538,186 881.3461538461538,163.8" fill="none" stroke="#e67e22" stroke-width="2.5" stroke-linecap="round"/>
          <!-- Right branch -->
          <path d="M 891.3461538461538,193.4 Q 903.3461538461538,178.6 899.3461538461538,149" fill="none" stroke="#e67e22" stroke-width="2.5" stroke-linecap="round"/>
          <!-- Small sub-branches -->
          <line x1="884.3461538461538" y1="178.6" x2="877.3461538461538" y2="171.2" stroke="#e67e22" stroke-width="2" stroke-linecap="round"/>
          <line x1="897.3461538461538" y1="171.2" x2="903.3461538461538" y2="160.1" stroke="#e67e22" stroke-width="2" stroke-linecap="round"/>
        </g>
      

  <!-- Swimming fishes -->
  
      <g class="jellyfish" style="animation-duration:22s; animation-delay:0s; transform: translate(232px, 0px)">
        <!-- Tentacles -->
        <path class="tentacle" d="M -4,0 Q -6,15 -3,30" fill="none" stroke="rgba(186, 85, 211, 0.4)" stroke-width="1.5"/>
        <path class="tentacle" d="M 0,0 Q 0,18 2,32" fill="none" stroke="rgba(238, 130, 238, 0.7)" stroke-width="1.5" style="animation-delay:0.3s"/>
        <path class="tentacle" d="M 4,0 Q 6,15 3,30" fill="none" stroke="rgba(186, 85, 211, 0.4)" stroke-width="1.5" style="animation-delay:0.6s"/>
        <!-- Bell / Body -->
        <path d="M -8,0 C -8,-10 8,-10 8,0 Z" fill="rgba(238, 130, 238, 0.7)" filter="url(#glow)"/>
      </g>
    
  
    <g class="fish fish-swim" style="animation-duration:16s; animation-delay:1.5s; transform: scale(0.6)">
      <!-- Tail fin -->
      <path class="fish-tail" d="M -12,0 L -22,-8 L -18,0 L -22,8 Z" fill="#00d2ff"/>
      <!-- Pectoral Fin -->
      <path d="M -2,4 L -6,10 L -4,3 Z" fill="#00d2ff"/>
      <!-- Body -->
      <path d="M -12,0 C -6,-8 6,-8 14,0 C 6,8 -6,8 -12,0 Z" fill="#ffea00"/>
      <!-- Stripes (for clownfish style) -->
      
        <path d="M -3,-5 L -3,5 M 4,-4 L 4,4" stroke="#ffffff" stroke-width="2.5"/>
      
      <!-- Eye -->
      <circle cx="8" cy="-2" r="1.5" fill="#ffffff"/>
      <circle cx="9" cy="-2" r="0.7" fill="#000000"/>
    </g>
  
  
    <g class="fish fish-swim" style="animation-duration:26s; animation-delay:3s; transform: scale(0.6)">
      <!-- Tail fin -->
      <path class="fish-tail" d="M -12,0 L -22,-8 L -18,0 L -22,8 Z" fill="#ffffff"/>
      <!-- Pectoral Fin -->
      <path d="M -2,4 L -6,10 L -4,3 Z" fill="#ffffff"/>
      <!-- Body -->
      <path d="M -12,0 C -6,-8 6,-8 14,0 C 6,8 -6,8 -12,0 Z" fill="#ff5f1f"/>
      <!-- Stripes (for clownfish style) -->
      
      <!-- Eye -->
      <circle cx="8" cy="-2" r="1.5" fill="#ffffff"/>
      <circle cx="9" cy="-2" r="0.7" fill="#000000"/>
    </g>
  
  
    <g class="fish fish-swim" style="animation-duration:20s; animation-delay:4.5s; transform: scale(0.6)">
      <!-- Tail fin -->
      <path class="fish-tail" d="M -12,0 L -22,-8 L -18,0 L -22,8 Z" fill="#00d2ff"/>
      <!-- Pectoral Fin -->
      <path d="M -2,4 L -6,10 L -4,3 Z" fill="#00d2ff"/>
      <!-- Body -->
      <path d="M -12,0 C -6,-8 6,-8 14,0 C 6,8 -6,8 -12,0 Z" fill="#ffea00"/>
      <!-- Stripes (for clownfish style) -->
      
      <!-- Eye -->
      <circle cx="8" cy="-2" r="1.5" fill="#ffffff"/>
      <circle cx="9" cy="-2" r="0.7" fill="#000000"/>
    </g>
  

  <!-- Seabed / Sand -->
  <path d="M 0,225 Q 225,217 450,225 T 900,225 L 900,260 L 0,260 Z" fill="url(#sand)"/>

  <!-- HUD label -->
  
  <g>
    <rect x="8" y="8" width="220" height="22" rx="4" fill="rgba(0,0,0,0.5)"/>
    <text x="14" y="22" font-family="monospace" font-size="10" fill="#fff" font-weight="bold">
      🪸 Dasmat13's Aquarium · 619 commits
    </text>
  </g>
  <g>
    <rect x="772" y="8" width="120" height="22" rx="4" fill="rgba(0,0,0,0.5)"/>
    <text x="778" y="22" font-family="monospace" font-size="10" fill="#a2f0ff">
      🐠 12 stars · 6d streak
    </text>
  </g>

  <style>
    /* Fish swimming from left to right (looping) */
    .fish-swim {
      animation: swim-r 12s linear infinite;
      position: absolute;
    }
    @keyframes swim-r {
      0%   { transform: translate(-100px, 100px) scale(0.8) scaleX(1); }
      48%  { transform: translate(950px, 60px) scale(0.8) scaleX(1); }
      /* Turn around and swim back left (subtle layering) */
      50%  { transform: translate(950px, 60px) scale(0.8) scaleX(-1); }
      98%  { transform: translate(-100px, 100px) scale(0.8) scaleX(-1); }
      100% { transform: translate(-100px, 100px) scale(0.8) scaleX(1); }
    }

    /* Shark swimming (faster, deeper) */
    .shark-swim {
      animation: shark-r 20s linear infinite;
    }
    @keyframes shark-r {
      0%   { transform: translate(-150px, 120px) scaleX(1); }
      48%  { transform: translate(1050px, 150px) scaleX(1); }
      50%  { transform: translate(1050px, 150px) scaleX(-1); }
      98%  { transform: translate(-150px, 120px) scaleX(-1); }
      100% { transform: translate(-150px, 120px) scaleX(1); }
    }

    /* Wiggling fish tail */
    .fish-tail {
      animation: wiggle 0.25s ease-in-out infinite alternate;
      transform-origin: -12px 0px;
    }
    @keyframes wiggle {
      from { transform: rotate(-8deg); }
      to   { transform: rotate(8deg); }
    }

    /* Jellyfish bobbing and rising/falling */
    .jellyfish {
      animation: bob 8s ease-in-out infinite;
      position: absolute;
    }
    @keyframes bob {
      0%, 100% { transform: translate(300px, 40px); }
      50%      { transform: translate(320px, 130px); }
    }
    .tentacle {
      animation: wave-tentacle 1.5s ease-in-out infinite alternate;
      transform-origin: top center;
    }
    @keyframes wave-tentacle {
      from { transform: rotate(-5deg); }
      to   { transform: rotate(5deg); }
    }

    /* Seaweed/Kelp waving in currents */
    .seaweed {
      animation: wave-grass 4s ease-in-out infinite alternate;
      transform-origin: bottom center;
    }
    @keyframes wave-grass {
      from { transform: skewX(-6deg) scaleY(0.98); }
      to   { transform: skewX(6deg) scaleY(1.02); }
    }

    .coral-plant {
      animation: wave-coral 6s ease-in-out infinite alternate;
      transform-origin: bottom center;
    }
    @keyframes wave-coral {
      from { transform: rotate(-3deg); }
      to   { transform: rotate(3deg); }
    }

    .sea-fan {
      animation: wave-fan 5s ease-in-out infinite alternate;
      transform-origin: bottom center;
    }
    @keyframes wave-fan {
      from { transform: scaleX(0.95) skewX(-2deg); }
      to   { transform: scaleX(1.05) skewX(2deg); }
    }

    /* Bubbles rising animation */
    .bubble {
      animation: rise-bubble 5s linear infinite;
    }
    @keyframes rise-bubble {
      0%   { transform: translateY(0px) translateX(0px); opacity: 0; }
      10%  { opacity: 0.6; }
      90%  { opacity: 0.6; }
      100% { transform: translateY(-240px) translateX(15px); opacity: 0; }
    }

    /* Gold Sparkles */
    .gold-sparkle {
      animation: sparkle 2s ease-in-out infinite alternate;
    }
    @keyframes sparkle {
      0% { opacity: 0.2; transform: scale(0.8); }
      100% { opacity: 1; transform: scale(1.2); }
    }

    /* Bioluminescence nodes flashing */
    .glow-node {
      animation: biolum 4s ease-in-out infinite alternate;
    }
    @keyframes biolum {
      0%   { opacity: 0.2; filter: brightness(0.6); }
      100% { opacity: 1; filter: brightness(1.5); }
    }
  </style>
</svg>